<?xml version="1.0" encoding="UTF-8" standalone="no"?>
<!DOCTYPE svg PUBLIC "-//W3C//DTD SVG 20010904//EN"
              "http://www.w3.org/TR/2001/REC-SVG-20010904/DTD/svg10.dtd">

<svg xmlns="http://www.w3.org/2000/svg"
     width="2.99963in" height="1.01376in"
     viewBox="0 0 216 73">
  <path id="Auswahl"
        fill="none" stroke="black" stroke-width="1"
        d="M 22.00,5.00
           C 22.00,5.00 22.00,69.00 22.00,69.00
             22.00,69.00 4.00,69.00 4.00,69.00
             4.00,69.00 4.00,5.00 4.00,5.00
             4.00,5.00 22.00,5.00 22.00,5.00 Z
           M 46.00,5.00
           C 46.00,5.00 46.00,21.00 46.00,21.00
             46.00,21.00 28.00,21.00 28.00,21.00
             28.00,21.00 28.00,5.00 28.00,5.00
             28.00,5.00 46.00,5.00 46.00,5.00 Z
           M 69.00,5.00
           C 69.00,5.00 69.00,26.00 69.00,26.00
             69.00,26.00 92.00,26.00 92.00,26.00
             92.00,26.00 92.00,69.00 92.00,69.00
             92.00,69.00 51.00,69.00 51.00,69.00
             51.00,69.00 51.00,5.00 51.00,5.00
             51.00,5.00 69.00,5.00 69.00,5.00 Z
           M 46.00,26.00
           C 46.00,26.00 46.00,69.00 46.00,69.00
             46.00,69.00 28.00,69.00 28.00,69.00
             28.00,69.00 28.00,26.00 28.00,26.00
             28.00,26.00 46.00,26.00 46.00,26.00 Z
           M 138.00,26.00
           C 138.00,26.00 138.00,53.00 138.00,53.00
             138.00,53.00 115.00,53.00 115.00,53.00
             115.00,53.00 115.00,58.00 115.00,58.00
             115.00,58.00 138.00,58.00 138.00,58.00
             138.00,58.00 138.00,69.00 138.00,69.00
             138.00,69.00 98.00,69.00 98.00,69.00
             98.00,69.00 98.00,26.00 98.00,26.00
             98.00,26.00 138.00,26.00 138.00,26.00 Z
           M 166.00,26.00
           C 166.00,26.00 166.00,40.00 166.00,40.00
             166.00,40.00 161.00,40.00 161.00,40.00
             161.00,40.00 161.00,69.00 161.00,69.00
             161.00,69.00 144.00,69.00 144.00,69.00
             144.00,69.00 144.00,26.00 144.00,26.00
             144.00,26.00 166.00,26.00 166.00,26.00 Z
           M 212.00,26.00
           C 212.00,26.00 212.00,69.00 212.00,69.00
             212.00,69.00 172.00,69.00 172.00,69.00
             172.00,69.00 172.00,26.00 172.00,26.00
             172.00,26.00 212.00,26.00 212.00,26.00 Z
           M 115.00,37.00
           C 115.00,37.00 115.00,42.00 115.00,42.00
             115.00,42.00 121.00,42.00 121.00,42.00
             121.00,42.00 121.00,37.00 121.00,37.00
             121.00,37.00 115.00,37.00 115.00,37.00 Z
           M 69.00,40.00
           C 69.00,40.00 69.00,56.00 69.00,56.00
             69.00,56.00 75.00,56.00 75.00,56.00
             75.00,56.00 75.00,40.00 75.00,40.00
             75.00,40.00 69.00,40.00 69.00,40.00 Z
           M 189.00,40.00
           C 189.00,40.00 189.00,56.00 189.00,56.00
             189.00,56.00 195.00,56.00 195.00,56.00
             195.00,56.00 195.00,40.00 195.00,40.00
             195.00,40.00 189.00,40.00 189.00,40.00 Z" />
</svg>
